<?xml version="1.0" encoding="utf-8"?>
<!-- Generator: Adobe Illustrator 27.5.0, SVG Export Plug-In . SVG Version: 6.00 Build 0)  -->
<svg version="1.1" id="Capa_1" xmlns="http://www.w3.org/2000/svg" xmlns:xlink="http://www.w3.org/1999/xlink" x="0px" y="0px"
	 viewBox="0 0 2362 1906" style="enable-background:new 0 0 2362 1906;" xml:space="preserve">
<ellipse style="fill:#3C3549;" cx="447.583" cy="960.195" rx="292.716" ry="520.936"/>
<path style="fill:#282033;" d="M609.182,644.432c-48.449-86.223-113.471-133.708-183.089-133.708s-134.64,47.485-183.089,133.708
	c-47.48,84.498-73.628,196.638-73.628,315.764c0,119.125,26.148,231.265,73.628,315.764
	c48.449,86.223,113.471,133.708,183.089,133.708s134.64-47.485,183.089-133.708c47.48-84.499,73.628-196.639,73.628-315.764
	C682.81,841.07,656.662,728.93,609.182,644.432z"/>
<ellipse style="fill:#554B66;" cx="426.093" cy="960.195" rx="247.229" ry="439.984"/>
<ellipse style="fill:#3C3549;" cx="404.994" cy="960.195" rx="144.713" ry="257.54"/>
<path style="fill:#282033;" d="M486.617,806.233c-24.165-43.005-56.899-66.688-92.173-66.688c-35.273,0-68.008,23.684-92.172,66.688
	c-23.195,41.279-35.969,95.958-35.969,153.962s12.774,112.683,35.969,153.962c24.164,43.004,56.899,66.688,92.172,66.688
	c35.274,0,68.008-23.684,92.173-66.688c23.195-41.28,35.969-95.958,35.969-153.962S509.812,847.512,486.617,806.233z"/>
<path style="fill:#282033;" d="M294.395,1146.952c29.087,51.765,68.365,80.272,110.599,80.272c42.235,0,81.513-28.507,110.6-80.272
	c28.117-50.039,43.602-116.364,43.602-186.756c0-70.393-15.484-136.718-43.602-186.757c-29.087-51.764-68.365-80.272-110.6-80.272
	c-42.234,0-81.513,28.507-110.599,80.272c-28.117,50.039-43.602,116.364-43.602,186.757
	C250.793,1030.588,266.278,1096.913,294.395,1146.952z M404.994,702.655c79.923,0,144.713,115.304,144.713,257.54
	s-64.791,257.54-144.713,257.54c-79.923,0-144.713-115.304-144.713-257.54S325.071,702.655,404.994,702.655z"/>
<ellipse style="fill:#6B617F;" cx="394.445" cy="960.195" rx="118.653" ry="211.162"/>
<path style="fill:#6D5F7F;" d="M2144.507,624.398H1941.28c39.732,91.762,61.323,203.414,61.323,320.913
	c0,66.962-7.067,131.994-20.434,192.58h203.878c13.327-59.575,20.663-124.551,20.663-192.58
	C2206.71,824.225,2183.446,712.86,2144.507,624.398z"/>
<path style="fill:#282033;" d="M1913.994,414.888h-213.596h-9.489v0.281c-78.178,4.155-150.937,59.563-205.765,157.138
	c-37.45,66.648-63.589,147.916-76.87,236.451H950.987c-13.901-82.762-39.209-158.666-74.554-221.567
	c-57.041-101.513-133.486-157.419-215.253-157.419H447.583h-9.488v0.281c-78.178,4.154-150.938,59.563-205.765,157.138
	c-56.071,99.788-86.951,232.257-86.951,373.005c0,140.748,30.88,273.217,86.951,373.005
	c54.828,97.575,127.587,152.983,205.765,157.137v0.281h9.488h213.596c81.767,0,158.212-55.906,215.253-157.419
	c39.539-70.367,66.483-157.022,78.975-251.335h452.869c13.28,88.535,39.419,169.803,76.869,236.451
	c54.828,97.575,127.587,152.983,205.765,157.137v0.282h9.489h213.596c81.768,0,158.213-55.906,215.254-157.419
	c56.071-99.788,86.951-232.257,86.951-373.005c0-140.749-30.88-273.217-86.951-373.005
	C2072.207,470.793,1995.762,414.888,1913.994,414.888z M2186.047,1137.892c0,0.003-0.001,0.005-0.002,0.008
	c-1.266,5.66-2.596,11.261-3.969,16.821c-0.141,0.568-0.278,1.139-0.419,1.706c-1.397,5.602-2.844,11.156-4.347,16.652
	c-0.063,0.228-0.128,0.453-0.191,0.681c-1.457,5.306-2.968,10.557-4.522,15.76c-0.143,0.478-0.282,0.959-0.425,1.435
	c-1.612,5.353-3.272,10.649-4.984,15.888c-0.128,0.391-0.259,0.776-0.387,1.166c-1.651,5.019-3.346,9.985-5.087,14.895
	c-0.126,0.356-0.249,0.715-0.375,1.071c-1.816,5.094-3.682,10.124-5.593,15.095c-0.194,0.504-0.391,1.002-0.586,1.505
	c-1.847,4.769-3.734,9.488-5.667,14.141c-0.095,0.228-0.187,0.46-0.282,0.689c-2.008,4.817-4.066,9.563-6.164,14.25
	c-0.258,0.577-0.52,1.147-0.78,1.723c-2.06,4.561-4.154,9.072-6.297,13.506c-0.037,0.075-0.072,0.153-0.109,0.228
	c-2.188,4.52-4.426,8.962-6.698,13.345c-0.327,0.629-0.655,1.252-0.983,1.878c-4.519,8.631-9.198,16.99-14.035,25.059
	c-0.387,0.647-0.777,1.29-1.167,1.933c-4.827,7.966-9.802,15.645-14.923,23.024c-0.441,0.636-0.883,1.27-1.326,1.901
	c-5.116,7.285-10.372,14.268-15.759,20.94c-0.495,0.612-0.989,1.226-1.486,1.833c-2.697,3.296-5.419,6.532-8.181,9.67
	c-0.14,0.16-0.285,0.313-0.425,0.473c-2.623,2.968-5.279,5.849-7.956,8.671c-0.529,0.557-1.056,1.118-1.586,1.669
	c-2.802,2.909-5.627,5.752-8.487,8.499c-0.314,0.302-0.634,0.591-0.949,0.891c-2.611,2.487-5.25,4.898-7.908,7.247
	c-0.557,0.492-1.111,0.991-1.67,1.477c-2.894,2.517-5.812,4.958-8.76,7.307c-0.459,0.365-0.921,0.714-1.381,1.075
	c-2.638,2.075-5.296,4.078-7.974,6.016c-0.559,0.405-1.116,0.82-1.677,1.22c-2.986,2.124-5.997,4.163-9.031,6.115
	c-0.574,0.369-1.153,0.72-1.728,1.084c-2.694,1.698-5.404,3.329-8.133,4.89c-0.542,0.31-1.08,0.634-1.623,0.938
	c-3.078,1.725-6.179,3.355-9.3,4.903c-0.663,0.328-1.328,0.639-1.993,0.96c-2.784,1.342-5.584,2.619-8.4,3.817
	c-0.496,0.212-0.989,0.439-1.486,0.646c-3.165,1.315-6.352,2.526-9.555,3.656c-0.733,0.259-1.468,0.502-2.203,0.751
	c-2.918,0.989-5.848,1.911-8.797,2.745c-0.407,0.115-0.81,0.247-1.218,0.359c-3.25,0.894-6.522,1.671-9.807,2.372
	c-0.785,0.168-1.572,0.324-2.359,0.48c-3.112,0.619-6.234,1.172-9.375,1.616c-0.254,0.036-0.506,0.086-0.761,0.12
	c-3.337,0.457-6.694,0.784-10.061,1.04c-0.819,0.062-1.637,0.115-2.458,0.166c-3.403,0.208-6.815,0.352-10.247,0.352h-156.039
	c59.661-19.898,114.298-70.696,157.696-147.93c29.395-52.313,51.788-113.664,66.517-180.425
	c13.367-60.586,20.434-125.619,20.434-192.58c0-117.499-21.591-229.151-61.323-320.913c-7.862-18.156-16.366-35.609-25.628-52.092
	c-43.398-77.234-98.035-128.033-157.696-147.931h156.039c2.743,0,5.476,0.081,8.201,0.214c0.892,0.044,1.778,0.123,2.668,0.181
	c1.836,0.119,3.671,0.252,5.498,0.431c1.037,0.102,2.07,0.229,3.105,0.35c1.689,0.198,3.375,0.413,5.056,0.661
	c1.06,0.157,2.118,0.325,3.174,0.501c1.668,0.279,3.331,0.586,4.991,0.914c1.03,0.204,2.06,0.405,3.086,0.628
	c1.75,0.379,3.492,0.8,5.233,1.235c0.91,0.227,1.822,0.437,2.728,0.679c2.176,0.58,4.341,1.214,6.5,1.878
	c0.456,0.14,0.916,0.26,1.372,0.404c2.619,0.829,5.224,1.724,7.818,2.677c0.699,0.257,1.391,0.544,2.088,0.809
	c1.89,0.719,3.776,1.456,5.651,2.239c0.92,0.384,1.834,0.795,2.75,1.195c1.656,0.723,3.307,1.46,4.952,2.232
	c0.962,0.452,1.921,0.918,2.878,1.386c1.613,0.789,3.22,1.602,4.822,2.438c0.934,0.488,1.867,0.977,2.798,1.481
	c1.664,0.902,3.32,1.838,4.972,2.792c0.839,0.484,1.68,0.956,2.516,1.453c1.939,1.154,3.865,2.353,5.786,3.577
	c0.525,0.334,1.054,0.65,1.577,0.989c2.481,1.609,4.948,3.274,7.397,4.998c0.305,0.216,0.606,0.446,0.911,0.663
	c2.105,1.497,4.2,3.031,6.281,4.611c0.721,0.548,1.435,1.119,2.153,1.676c1.667,1.295,3.328,2.607,4.98,3.955
	c0.804,0.656,1.604,1.327,2.403,1.997c1.57,1.312,3.131,2.646,4.685,4.007c0.803,0.703,1.605,1.41,2.404,2.125
	c1.579,1.415,3.148,2.86,4.71,4.323c0.73,0.684,1.462,1.361,2.189,2.056c1.757,1.68,3.499,3.399,5.234,5.14
	c0.504,0.505,1.014,0.996,1.515,1.507c4.535,4.615,8.993,9.441,13.372,14.468c0.485,0.557,0.964,1.132,1.447,1.694
	c1.675,1.948,3.341,3.918,4.992,5.925c0.63,0.766,1.255,1.546,1.881,2.32c1.506,1.862,3.004,3.745,4.489,5.656
	c0.65,0.836,1.297,1.677,1.943,2.521c1.479,1.935,2.945,3.896,4.402,5.878c0.6,0.816,1.201,1.629,1.798,2.453
	c1.583,2.189,3.15,4.412,4.708,6.657c0.437,0.629,0.878,1.247,1.312,1.881c4.053,5.912,8.017,12.011,11.884,18.295
	c0.235,0.382,0.464,0.774,0.698,1.157c1.657,2.709,3.296,5.449,4.917,8.225c0.465,0.796,0.923,1.605,1.385,2.407
	c1.386,2.405,2.762,4.831,4.121,7.285c0.519,0.938,1.035,1.882,1.551,2.826c1.31,2.399,2.605,4.821,3.889,7.265
	c0.496,0.944,0.992,1.887,1.485,2.838c1.34,2.59,2.663,5.21,3.974,7.848c0.397,0.797,0.798,1.586,1.191,2.387
	c1.63,3.321,3.239,6.674,4.821,10.068c0.051,0.109,0.104,0.216,0.155,0.324c41.98,90.164,67.217,205.91,67.217,332.153
	C2206.71,1013.341,2199.374,1078.317,2186.047,1137.892L2186.047,1137.892z M802.272,1416.698c-2.884,2.829-5.795,5.582-8.738,8.242
	c-0.429,0.388-0.864,0.76-1.295,1.145c-2.695,2.406-5.414,4.739-8.156,6.999c-0.482,0.398-0.961,0.808-1.445,1.201
	c-2.986,2.426-5.999,4.76-9.038,7.011c-0.6,0.445-1.204,0.875-1.806,1.313c-2.878,2.093-5.776,4.12-8.699,6.052
	c-0.279,0.184-0.554,0.38-0.833,0.563c-3.112,2.038-6.255,3.961-9.415,5.814c-0.691,0.406-1.384,0.803-2.076,1.2
	c-3.192,1.824-6.399,3.583-9.637,5.216c-0.124,0.063-0.252,0.118-0.376,0.181c-3.132,1.571-6.29,3.025-9.463,4.413
	c-0.71,0.311-1.42,0.625-2.133,0.927c-3.236,1.37-6.489,2.658-9.765,3.835c-0.504,0.181-1.011,0.34-1.516,0.517
	c-2.961,1.035-5.94,1.984-8.933,2.859c-0.652,0.19-1.301,0.393-1.955,0.577c-3.302,0.924-6.623,1.746-9.961,2.472
	c-0.699,0.152-1.401,0.284-2.101,0.427c-3.062,0.626-6.138,1.175-9.228,1.632c-0.463,0.068-0.922,0.154-1.386,0.219
	c-3.395,0.472-6.809,0.82-10.236,1.084c-0.793,0.062-1.586,0.111-2.38,0.161c-3.494,0.22-6.998,0.371-10.522,0.371H505.141
	c59.661-19.898,114.298-70.696,157.696-147.93c31.574-56.192,55.157-122.748,69.74-195.309
	c11.314-56.296,17.212-116.205,17.212-177.697c0-123.908-23.957-241.372-67.94-335.797c-5.978-12.834-12.302-25.269-19.012-37.208
	c-43.398-77.234-98.036-128.033-157.697-147.931h156.04c0.046,0,0.091,0.003,0.136,0.003c2.626,0.002,5.244,0.072,7.853,0.197
	c0.891,0.042,1.778,0.123,2.668,0.181c1.762,0.112,3.524,0.228,5.278,0.396c1.042,0.1,2.079,0.233,3.119,0.352
	c1.601,0.183,3.201,0.372,4.797,0.601c1.08,0.155,2.155,0.335,3.232,0.511c1.554,0.254,3.104,0.52,4.65,0.816
	c1.076,0.207,2.149,0.428,3.222,0.655c1.549,0.328,3.094,0.677,4.635,1.048c1.049,0.253,2.098,0.51,3.144,0.783
	c1.575,0.41,3.144,0.85,4.71,1.304c0.995,0.289,1.991,0.574,2.983,0.88c1.655,0.512,3.302,1.063,4.948,1.624
	c0.888,0.302,1.778,0.591,2.663,0.908c1.885,0.675,3.76,1.398,5.631,2.137c0.633,0.25,1.269,0.479,1.899,0.736
	c5.086,2.071,10.121,4.378,15.102,6.914c0.425,0.217,0.846,0.453,1.272,0.673c2.042,1.058,4.077,2.144,6.099,3.277
	c0.645,0.362,1.284,0.744,1.927,1.114c1.802,1.035,3.599,2.089,5.385,3.184c0.704,0.432,1.404,0.879,2.105,1.32
	c1.732,1.088,3.458,2.198,5.175,3.342c0.695,0.463,1.387,0.935,2.079,1.407c1.73,1.18,3.452,2.388,5.166,3.624
	c0.65,0.469,1.301,0.94,1.949,1.417c1.785,1.315,3.56,2.664,5.327,4.039c0.553,0.43,1.108,0.854,1.659,1.291
	c1.945,1.54,3.877,3.121,5.799,4.733c0.353,0.296,0.71,0.584,1.063,0.883c9.398,7.963,18.518,16.792,27.332,26.428
	c0.04,0.043,0.08,0.088,0.12,0.132c2.132,2.334,4.244,4.718,6.339,7.146c0.183,0.213,0.365,0.429,0.548,0.643
	c1.962,2.283,3.906,4.607,5.835,6.971c0.228,0.28,0.455,0.562,0.684,0.843c1.91,2.356,3.803,4.751,5.68,7.185
	c0.192,0.249,0.384,0.498,0.576,0.748c1.961,2.557,3.903,5.154,5.827,7.794c0.081,0.112,0.163,0.221,0.244,0.333
	c16.447,22.628,31.5,48.303,44.899,76.55c0.002,0.005,0.005,0.01,0.008,0.016h-0.001c43.01,90.681,68.949,207.839,68.949,335.797
	c0,69.068-7.571,134.979-21.287,195.295c-0.162,0.713-0.326,1.422-0.49,2.133c-2.649,11.501-5.522,22.796-8.61,33.867
	c-0.19,0.68-0.378,1.361-0.569,2.04c-1.565,5.551-3.176,11.052-4.849,16.486c-0.039,0.128-0.081,0.255-0.12,0.383
	c-1.647,5.343-3.351,10.62-5.099,15.847c-0.17,0.508-0.337,1.02-0.507,1.527c-1.773,5.26-3.597,10.46-5.47,15.597
	c-0.183,0.501-0.37,0.996-0.554,1.497c-1.845,5.02-3.73,9.987-5.669,14.885c-0.076,0.192-0.149,0.387-0.226,0.579
	c-1.983,4.996-4.02,9.919-6.098,14.784c-0.277,0.647-0.555,1.29-0.834,1.936c-4.156,9.637-8.496,19.007-13.012,28.095
	c-0.332,0.668-0.664,1.336-0.998,2.002c-2.272,4.524-4.579,8.992-6.936,13.371c-0.058,0.107-0.117,0.211-0.174,0.318
	c-2.298,4.262-4.644,8.44-7.022,12.562c-0.333,0.578-0.664,1.16-0.999,1.735c-2.414,4.145-4.866,8.219-7.359,12.215
	c-0.293,0.47-0.591,0.931-0.886,1.4c-2.366,3.761-4.763,7.457-7.197,11.082c-0.257,0.382-0.509,0.773-0.766,1.154
	c-2.564,3.794-5.17,7.502-7.808,11.142c-0.439,0.606-0.881,1.202-1.322,1.804c-2.636,3.595-5.299,7.134-8.006,10.572
	c-0.029,0.037-0.058,0.076-0.087,0.113c-2.73,3.466-5.504,6.827-8.303,10.128c-0.52,0.613-1.041,1.224-1.564,1.831
	c-2.796,3.252-5.616,6.442-8.477,9.526c-0.121,0.131-0.244,0.254-0.366,0.384c-2.754,2.959-5.545,5.821-8.357,8.622
	C803.34,1415.635,802.808,1416.172,802.272,1416.698z M447.583,439.259c161.663,0,292.716,233.231,292.716,520.936
	s-131.053,520.935-292.716,520.935S154.867,1247.9,154.867,960.195S285.921,439.259,447.583,439.259z M963.328,964.247
	c0.006-1.355,0.056-2.696,0.056-4.052c0-35.701-2.006-70.859-5.886-105.097c-1.409-12.426-3.132-24.691-5.035-36.853h661.671
	c1.23,0,2.452,0.055,3.667,0.166c0.352,0.031,0.697,0.1,1.046,0.14c0.857,0.099,1.716,0.194,2.564,0.347
	c0.565,0.102,1.122,0.253,1.683,0.379c0.626,0.14,1.258,0.257,1.879,0.425c0.661,0.179,1.312,0.411,1.968,0.623
	c0.51,0.164,1.025,0.303,1.531,0.486c0.761,0.277,1.511,0.606,2.264,0.925c0.39,0.166,0.786,0.305,1.174,0.482
	c0.813,0.371,1.613,0.794,2.414,1.214c0.318,0.167,0.642,0.31,0.958,0.484c0.894,0.493,1.774,1.036,2.652,1.589
	c0.213,0.134,0.431,0.25,0.644,0.388c0.945,0.613,1.875,1.275,2.802,1.956c0.139,0.102,0.282,0.192,0.421,0.295
	c0.959,0.718,1.904,1.484,2.841,2.273c0.1,0.085,0.204,0.16,0.305,0.245c1.016,0.866,2.018,1.776,3.006,2.724
	c0.017,0.016,0.033,0.029,0.05,0.045c0.994,0.955,1.972,1.953,2.938,2.988c0.013,0.014,0.027,0.027,0.041,0.042
	c4.882,5.245,9.38,11.504,13.408,18.607c0.005,0.01,0.013,0.02,0.018,0.03l0,0c13.044,23.023,21.127,54.935,21.127,90.213
	c0,6.435-0.274,12.757-0.793,18.935l0,0c0,0.001,0,0.003,0,0.005c-0.305,3.622-0.708,7.185-1.181,10.702
	c-0.041,0.308-0.077,0.618-0.12,0.925c-0.468,3.369-1.017,6.677-1.632,9.935c-0.076,0.399-0.15,0.8-0.228,1.198
	c-0.626,3.208-1.321,6.357-2.084,9.442c-0.093,0.375-0.189,0.745-0.284,1.119c-0.792,3.116-1.642,6.173-2.567,9.149
	c-0.073,0.234-0.151,0.461-0.224,0.693c-1.95,6.181-4.18,12.041-6.663,17.527c-0.088,0.195-0.172,0.396-0.26,0.59
	c-1.193,2.604-2.45,5.107-3.753,7.534c-0.171,0.318-0.339,0.641-0.512,0.956c-1.283,2.342-2.618,4.589-4,6.749
	c-0.208,0.325-0.417,0.645-0.626,0.966c-1.396,2.133-2.834,4.178-4.321,6.117c-0.197,0.257-0.398,0.501-0.596,0.754
	c-1.54,1.966-3.118,3.846-4.746,5.593c-0.102,0.11-0.208,0.209-0.31,0.318c-1.653,1.753-3.348,3.393-5.083,4.909
	c-0.096,0.083-0.188,0.175-0.283,0.258c-1.715,1.481-3.475,2.819-5.264,4.057c-0.241,0.167-0.479,0.344-0.721,0.506
	c-1.732,1.161-3.5,2.191-5.292,3.113c-0.304,0.157-0.608,0.313-0.915,0.462c-1.79,0.875-3.605,1.631-5.447,2.258
	c-0.302,0.103-0.607,0.193-0.91,0.289c-1.885,0.597-3.791,1.083-5.723,1.411c-0.224,0.038-0.452,0.057-0.676,0.092
	c-2.039,0.312-4.098,0.505-6.182,0.505l0,0h0H956.603C960.877,1037.199,963.172,1001.027,963.328,964.247z M1614.133,808.757
	h-57.343c21.764-45.624,54.207-74.608,90.47-74.608c65.53,0,118.653,94.54,118.653,211.162s-53.123,211.162-118.653,211.162
	c-36.263,0-68.706-28.984-90.47-74.607h57.343c45.358,0,80.888-59.982,80.888-136.554
	C1695.021,868.739,1659.49,808.757,1614.133,808.757z M1555.088,1099.273c24.164,43.005,56.898,66.688,92.172,66.688
	c35.273,0,68.007-23.684,92.172-66.688c23.195-41.279,35.969-95.957,35.969-153.962c0-58.005-12.774-112.683-35.969-153.962
	c-24.165-43.005-56.899-66.688-92.172-66.688c-35.274,0-68.008,23.684-92.173,66.688c-3.121,5.555-6.018,11.392-8.757,17.408h-11.2
	c25.586-72.647,70.948-120.986,122.678-120.986c79.923,0,144.713,115.304,144.713,257.54s-64.79,257.54-144.713,257.54
	c-51.73,0-97.092-48.339-122.678-120.986h11.2C1549.069,1087.882,1551.966,1093.719,1555.088,1099.273z M1547.209,1132.068
	c29.087,51.765,68.365,80.272,110.6,80.272c42.234,0,81.513-28.507,110.599-80.272c28.117-50.039,43.602-116.364,43.602-186.756
	c0-70.393-15.485-136.718-43.602-186.757c-29.087-51.764-68.365-80.272-110.599-80.272c-42.235,0-81.513,28.508-110.6,80.272
	c-8.608,15.32-16.018,32.18-22.176,50.202h-81.152c32.291-176.124,125.281-303.43,235.027-303.43
	c136.54,0,247.229,196.988,247.229,439.984c0,242.996-110.688,439.984-247.229,439.984c-109.746,0-202.735-127.305-235.027-303.429
	h81.152C1531.191,1099.888,1538.601,1116.748,1547.209,1132.068z M1434.189,1081.866c12.042,66.793,32.9,128.081,61.629,179.209
	c48.449,86.223,113.472,133.708,183.09,133.708c69.617,0,134.64-47.485,183.089-133.708c47.48-84.499,73.628-196.639,73.628-315.764
	c0-119.126-26.149-231.266-73.628-315.764c-48.449-86.223-113.472-133.709-183.089-133.709c-69.618,0-134.64,47.486-183.09,133.709
	c-28.73,51.128-49.587,112.416-61.629,179.209h-16.324c33.716-221.462,147.424-384.382,282.533-384.382
	c161.663,0,292.717,233.231,292.717,520.936s-131.053,520.935-292.717,520.935c-135.108,0-248.817-162.92-282.533-384.381H1434.189z
	"/>
<path style="fill:#86789B;" d="M2139.493,613.159c-0.051-0.109-0.103-0.216-0.155-0.324c-1.582-3.394-3.192-6.748-4.821-10.068
	c-0.393-0.802-0.794-1.59-1.191-2.387c-1.311-2.638-2.634-5.258-3.974-7.848c-0.492-0.951-0.989-1.894-1.485-2.838
	c-1.284-2.444-2.58-4.865-3.889-7.265c-0.515-0.944-1.031-1.889-1.551-2.826c-1.359-2.454-2.735-4.879-4.121-7.285
	c-0.462-0.801-0.92-1.611-1.385-2.407c-1.621-2.776-3.261-5.516-4.917-8.225c-0.234-0.383-0.463-0.775-0.698-1.157
	c-3.867-6.284-7.831-12.382-11.884-18.295c-0.434-0.634-0.876-1.252-1.312-1.881c-1.557-2.245-3.125-4.468-4.708-6.657
	c-0.596-0.824-1.198-1.637-1.798-2.453c-1.457-1.982-2.924-3.943-4.402-5.878c-0.646-0.845-1.293-1.686-1.943-2.521
	c-1.485-1.911-2.983-3.793-4.489-5.656c-0.626-0.774-1.251-1.555-1.881-2.32c-1.651-2.007-3.317-3.977-4.992-5.925
	c-0.483-0.563-0.961-1.137-1.447-1.694c-4.378-5.027-8.837-9.853-13.372-14.468c-0.501-0.511-1.011-1.001-1.515-1.507
	c-1.734-1.741-3.477-3.461-5.234-5.14c-0.727-0.695-1.459-1.372-2.189-2.056c-1.563-1.464-3.131-2.909-4.71-4.323
	c-0.799-0.716-1.601-1.422-2.404-2.125c-1.554-1.361-3.116-2.695-4.685-4.007c-0.8-0.669-1.599-1.34-2.403-1.997
	c-1.651-1.348-3.313-2.66-4.98-3.955c-0.719-0.558-1.432-1.129-2.153-1.676c-2.081-1.581-4.175-3.115-6.281-4.611
	c-0.305-0.217-0.606-0.448-0.911-0.663c-2.45-1.724-4.917-3.388-7.397-4.998c-0.523-0.339-1.053-0.655-1.577-0.989
	c-1.921-1.224-3.847-2.423-5.786-3.577c-0.835-0.497-1.677-0.969-2.516-1.453c-1.652-0.953-3.307-1.889-4.972-2.792
	c-0.93-0.504-1.863-0.993-2.798-1.481c-1.601-0.836-3.209-1.65-4.822-2.438c-0.958-0.468-1.916-0.934-2.878-1.386
	c-1.645-0.772-3.296-1.51-4.952-2.232c-0.917-0.4-1.831-0.81-2.75-1.195c-1.876-0.784-3.762-1.52-5.651-2.239
	c-0.697-0.266-1.39-0.553-2.088-0.809c-2.594-0.952-5.2-1.847-7.818-2.677c-0.455-0.144-0.916-0.264-1.372-0.404
	c-2.159-0.665-4.325-1.299-6.5-1.878c-0.906-0.242-1.818-0.452-2.728-0.679c-1.74-0.434-3.482-0.855-5.233-1.235
	c-1.026-0.223-2.056-0.424-3.086-0.628c-1.66-0.328-3.322-0.635-4.991-0.914c-1.056-0.177-2.115-0.345-3.174-0.501
	c-1.681-0.248-3.367-0.463-5.056-0.661c-1.034-0.121-2.068-0.248-3.105-0.35c-1.827-0.179-3.662-0.312-5.498-0.431
	c-0.89-0.058-1.776-0.137-2.668-0.181c-2.725-0.133-5.458-0.214-8.201-0.214h-156.039c59.661,19.898,114.298,70.697,157.696,147.931
	c9.262,16.483,17.766,33.936,25.628,52.092h203.302C2142.914,620.609,2141.217,616.863,2139.493,613.159z"/>
<path style="fill:#574C68;" d="M1915.652,1318.317c-43.398,77.234-98.035,128.033-157.696,147.93h156.039
	c3.431,0,6.844-0.144,10.247-0.352c0.82-0.051,1.639-0.104,2.458-0.166c3.367-0.257,6.724-0.583,10.061-1.04
	c0.255-0.034,0.506-0.084,0.761-0.12c3.14-0.445,6.264-0.997,9.375-1.616c0.787-0.156,1.573-0.313,2.359-0.48
	c3.285-0.702,6.557-1.478,9.807-2.372c0.407-0.112,0.81-0.244,1.218-0.359c2.948-0.834,5.879-1.756,8.797-2.745
	c0.735-0.249,1.47-0.491,2.203-0.751c3.203-1.131,6.391-2.341,9.555-3.656c0.497-0.207,0.989-0.434,1.486-0.646
	c2.816-1.198,5.615-2.474,8.4-3.817c0.665-0.32,1.331-0.631,1.993-0.96c3.121-1.547,6.222-3.177,9.3-4.903
	c0.543-0.304,1.081-0.628,1.623-0.938c2.729-1.561,5.439-3.191,8.133-4.89c0.575-0.363,1.154-0.714,1.728-1.084
	c3.034-1.952,6.045-3.991,9.031-6.115c0.561-0.399,1.118-0.814,1.677-1.22c2.678-1.938,5.336-3.942,7.974-6.016
	c0.46-0.362,0.923-0.71,1.381-1.075c2.946-2.35,5.866-4.791,8.76-7.307c0.559-0.487,1.114-0.985,1.67-1.477
	c2.658-2.349,5.296-4.76,7.908-7.247c0.316-0.301,0.635-0.589,0.949-0.891c2.859-2.747,5.685-5.589,8.487-8.499
	c0.53-0.552,1.057-1.112,1.586-1.669c2.677-2.823,5.333-5.702,7.956-8.671c0.14-0.16,0.285-0.313,0.425-0.473
	c2.761-3.138,5.484-6.373,8.181-9.67c0.497-0.607,0.991-1.221,1.486-1.833c5.387-6.672,10.643-13.655,15.759-20.94
	c0.443-0.631,0.885-1.265,1.326-1.901c5.12-7.379,10.097-15.058,14.923-23.024c0.39-0.643,0.779-1.286,1.167-1.933
	c4.835-8.069,9.516-16.427,14.035-25.059c0.328-0.626,0.656-1.249,0.983-1.878c2.272-4.383,4.51-8.824,6.698-13.345
	c0.037-0.076,0.072-0.153,0.109-0.228c2.143-4.434,4.238-8.945,6.297-13.506c0.26-0.575,0.522-1.146,0.78-1.723
	c2.098-4.687,4.156-9.433,6.164-14.25c0.095-0.228,0.187-0.46,0.282-0.689c1.933-4.653,3.82-9.371,5.667-14.141
	c0.195-0.503,0.392-1.001,0.586-1.505c1.911-4.971,3.777-10.002,5.593-15.095c0.126-0.355,0.249-0.715,0.375-1.071
	c1.741-4.91,3.437-9.876,5.087-14.895c0.128-0.39,0.259-0.775,0.387-1.166c1.712-5.239,3.373-10.536,4.984-15.888
	c0.143-0.476,0.283-0.957,0.425-1.435c1.555-5.203,3.065-10.454,4.522-15.76c0.063-0.228,0.128-0.453,0.191-0.681
	c1.503-5.496,2.95-11.05,4.347-16.652c0.141-0.567,0.279-1.137,0.419-1.706c1.373-5.56,2.703-11.161,3.969-16.821
	c0-0.003,0.001-0.005,0.002-0.008l0,0h-203.878C1967.44,1204.653,1945.047,1266.004,1915.652,1318.317z"/>
<path style="fill:#3C3549;" d="M1700.398,1466.247c161.663,0,292.717-233.231,292.717-520.935s-131.053-520.936-292.717-520.936
	c-135.108,0-248.817,162.92-282.533,384.382h16.324c12.042-66.793,32.9-128.081,61.629-179.209
	c48.449-86.223,113.472-133.709,183.09-133.709c69.617,0,134.64,47.486,183.089,133.709c47.48,84.498,73.628,196.638,73.628,315.764
	c0,119.125-26.149,231.265-73.628,315.764c-48.449,86.223-113.472,133.708-183.089,133.708c-69.618,0-134.64-47.485-183.09-133.708
	c-28.729-51.129-49.587-112.416-61.629-179.209h-16.324C1451.581,1303.327,1565.29,1466.247,1700.398,1466.247z"/>
<path style="fill:#4E445E;" d="M1678.908,1385.295c136.54,0,247.229-196.988,247.229-439.984
	c0-242.997-110.688-439.984-247.229-439.984c-109.746,0-202.736,127.306-235.027,303.43h81.152
	c6.158-18.022,13.568-34.882,22.176-50.202c29.087-51.764,68.365-80.272,110.6-80.272c42.234,0,81.513,28.508,110.599,80.272
	c28.117,50.039,43.602,116.364,43.602,186.757c0,70.392-15.485,136.718-43.602,186.756c-29.087,51.765-68.365,80.272-110.599,80.272
	c-42.235,0-81.513-28.507-110.6-80.272c-8.608-15.32-16.018-32.18-22.176-50.202h-81.152
	C1476.173,1257.99,1569.162,1385.295,1678.908,1385.295z"/>
<path style="fill:#3C3549;" d="M1657.809,1202.851c79.923,0,144.713-115.304,144.713-257.54s-64.79-257.54-144.713-257.54
	c-51.73,0-97.092,48.339-122.678,120.986h11.2c2.738-6.016,5.635-11.853,8.757-17.408c24.165-43.005,56.899-66.688,92.173-66.688
	c35.273,0,68.007,23.684,92.172,66.688c23.195,41.279,35.969,95.958,35.969,153.962c0,58.005-12.774,112.683-35.969,153.962
	c-24.165,43.005-56.899,66.688-92.172,66.688c-35.274,0-68.008-23.684-92.172-66.688c-3.121-5.555-6.018-11.391-8.757-17.407h-11.2
	C1560.717,1154.512,1606.079,1202.851,1657.809,1202.851z"/>
<path style="fill:#4E445E;" d="M1614.133,1081.866h-57.343c21.764,45.623,54.207,74.607,90.47,74.607
	c65.53,0,118.653-94.54,118.653-211.162s-53.123-211.162-118.653-211.162c-36.263,0-68.706,28.984-90.47,74.608h57.343
	c45.358,0,80.888,59.981,80.888,136.554C1695.021,1021.884,1659.49,1081.866,1614.133,1081.866z"/>
<path style="fill:#8CAAC6;" d="M1684.739,964.247c0.519-6.179,0.793-12.5,0.793-18.935c0-35.278-8.082-67.19-21.127-90.213H957.497
	c3.881,34.237,5.886,69.396,5.886,105.097c0,1.356-0.049,2.697-0.056,4.052H1684.739z"/>
<path style="fill:#B5CEE2;" d="M1664.405,855.098L1664.405,855.098c-0.005-0.01-0.013-0.02-0.018-0.03
	c-4.027-7.104-8.527-13.362-13.408-18.607c-0.013-0.015-0.027-0.027-0.041-0.042c-0.965-1.036-1.944-2.033-2.938-2.988
	c-0.017-0.016-0.033-0.029-0.05-0.045c-0.988-0.948-1.99-1.858-3.006-2.724c-0.101-0.086-0.204-0.16-0.305-0.245
	c-0.937-0.79-1.882-1.555-2.841-2.273c-0.139-0.103-0.282-0.193-0.421-0.295c-0.926-0.682-1.857-1.343-2.802-1.956
	c-0.213-0.138-0.431-0.253-0.644-0.388c-0.878-0.552-1.758-1.096-2.652-1.589c-0.316-0.174-0.64-0.318-0.958-0.484
	c-0.801-0.42-1.601-0.843-2.414-1.214c-0.388-0.177-0.784-0.316-1.174-0.482c-0.753-0.319-1.502-0.649-2.264-0.925
	c-0.505-0.183-1.021-0.322-1.531-0.486c-0.655-0.212-1.306-0.443-1.968-0.623c-0.621-0.168-1.252-0.285-1.879-0.425
	c-0.562-0.126-1.118-0.277-1.683-0.379c-0.849-0.153-1.707-0.248-2.564-0.347c-0.35-0.04-0.695-0.109-1.046-0.14
	c-1.215-0.11-2.437-0.166-3.667-0.166H952.462c1.903,12.162,3.626,24.427,5.035,36.853H1664.405z"/>
<path style="fill:#657F93;" d="M1614.133,1072.378L1614.133,1072.378L1614.133,1072.378c2.086,0,4.143-0.193,6.183-0.505
	c0.225-0.035,0.452-0.053,0.676-0.092c1.932-0.328,3.839-0.814,5.723-1.411c0.304-0.097,0.608-0.186,0.91-0.289
	c1.842-0.628,3.658-1.384,5.447-2.258c0.307-0.149,0.61-0.306,0.915-0.462c1.793-0.922,3.561-1.952,5.292-3.113
	c0.242-0.162,0.48-0.339,0.721-0.506c1.788-1.239,3.549-2.576,5.264-4.057c0.095-0.083,0.188-0.174,0.283-0.258
	c1.736-1.516,3.43-3.156,5.083-4.909c0.102-0.109,0.208-0.208,0.31-0.318c1.628-1.747,3.206-3.627,4.746-5.593
	c0.198-0.253,0.399-0.498,0.596-0.754c1.486-1.938,2.925-3.984,4.321-6.117c0.209-0.321,0.419-0.641,0.626-0.966
	c1.381-2.16,2.716-4.407,4-6.749c0.173-0.315,0.341-0.638,0.512-0.956c1.303-2.427,2.56-4.93,3.753-7.534
	c0.088-0.194,0.172-0.395,0.26-0.59c2.482-5.486,4.713-11.347,6.663-17.527c0.073-0.233,0.151-0.459,0.224-0.693
	c0.925-2.976,1.776-6.033,2.567-9.149c0.095-0.373,0.192-0.744,0.284-1.119c0.763-3.085,1.458-6.234,2.084-9.442
	c0.078-0.398,0.152-0.798,0.228-1.198c0.615-3.257,1.165-6.566,1.632-9.935c0.043-0.307,0.079-0.617,0.12-0.925
	c0.473-3.516,0.876-7.079,1.181-10.702c0-0.002,0-0.003,0-0.005l0,0H963.328c-0.155,36.78-2.451,72.952-6.724,108.131H1614.133z"/>
<path style="fill:#6D5F7F;" d="M936.342,1137.892c11.317-55.468,17.554-115.27,17.554-177.697
	c0-127.958-25.939-245.116-68.949-335.797H681.848c43.983,94.425,67.94,211.889,67.94,335.797
	c0,61.491-5.897,121.401-17.212,177.697H936.342z"/>
<path style="fill:#86789B;" d="M884.947,624.398c-0.003-0.006-0.006-0.011-0.008-0.016c-13.398-28.246-28.454-53.92-44.899-76.55
	c-0.081-0.112-0.163-0.221-0.244-0.333c-1.923-2.64-3.866-5.237-5.827-7.794c-0.192-0.25-0.384-0.498-0.576-0.748
	c-1.876-2.434-3.77-4.829-5.68-7.185c-0.228-0.281-0.455-0.563-0.684-0.843c-1.928-2.364-3.873-4.688-5.835-6.971
	c-0.183-0.213-0.365-0.43-0.548-0.643c-2.095-2.428-4.208-4.812-6.339-7.146c-0.04-0.044-0.08-0.089-0.12-0.132
	c-8.812-9.638-17.935-18.463-27.332-26.428c-0.353-0.299-0.709-0.586-1.063-0.883c-1.922-1.613-3.854-3.194-5.799-4.733
	c-0.551-0.437-1.106-0.861-1.659-1.291c-1.767-1.376-3.542-2.724-5.327-4.039c-0.648-0.477-1.299-0.948-1.949-1.417
	c-1.714-1.237-3.436-2.444-5.166-3.624c-0.692-0.473-1.385-0.944-2.079-1.407c-1.717-1.145-3.444-2.254-5.175-3.342
	c-0.702-0.441-1.401-0.888-2.105-1.32c-1.787-1.095-3.583-2.149-5.385-3.184c-0.643-0.369-1.282-0.752-1.927-1.114
	c-2.023-1.135-4.058-2.219-6.099-3.277c-0.425-0.22-0.846-0.456-1.272-0.673c-4.981-2.537-10.016-4.842-15.102-6.914
	c-0.63-0.257-1.267-0.486-1.899-0.736c-1.871-0.739-3.746-1.462-5.631-2.137c-0.885-0.317-1.775-0.605-2.663-0.908
	c-1.645-0.561-3.293-1.111-4.948-1.624c-0.992-0.306-1.988-0.591-2.983-0.88c-1.567-0.454-3.136-0.894-4.71-1.304
	c-1.046-0.273-2.095-0.53-3.144-0.783c-1.541-0.371-3.086-0.719-4.635-1.048c-1.073-0.227-2.146-0.449-3.222-0.655
	c-1.546-0.297-3.096-0.563-4.65-0.816c-1.077-0.176-2.153-0.356-3.232-0.511c-1.595-0.229-3.195-0.418-4.797-0.601
	c-1.04-0.119-2.077-0.252-3.119-0.352c-1.754-0.167-3.516-0.284-5.278-0.396c-0.89-0.057-1.777-0.138-2.668-0.181
	c-2.61-0.125-5.227-0.194-7.853-0.197c-0.046,0-0.091-0.003-0.136-0.003H505.14c59.661,19.898,114.299,70.696,157.697,147.931
	c6.709,11.94,13.034,24.375,19.012,37.208H884.947L884.947,624.398z"/>
<path style="fill:#574C68;" d="M812.598,1406.097c2.861-3.084,5.681-6.274,8.477-9.526c0.523-0.607,1.044-1.218,1.564-1.831
	c2.799-3.301,5.573-6.662,8.303-10.128c0.029-0.037,0.058-0.076,0.087-0.113c2.707-3.438,5.369-6.976,8.006-10.572
	c0.44-0.601,0.883-1.198,1.322-1.804c2.638-3.639,5.244-7.348,7.808-11.142c0.258-0.381,0.51-0.772,0.766-1.154
	c2.434-3.625,4.832-7.32,7.197-11.082c0.294-0.468,0.593-0.929,0.886-1.4c2.493-3.996,4.945-8.071,7.359-12.215
	c0.335-0.575,0.665-1.157,0.999-1.735c2.378-4.122,4.724-8.3,7.022-12.562c0.058-0.107,0.117-0.21,0.174-0.318
	c2.358-4.38,4.665-8.847,6.936-13.371c0.334-0.665,0.666-1.334,0.998-2.002c4.516-9.088,8.857-18.458,13.012-28.095
	c0.278-0.645,0.557-1.289,0.834-1.936c2.078-4.865,4.115-9.787,6.098-14.784c0.076-0.192,0.149-0.387,0.226-0.579
	c1.938-4.897,3.825-9.865,5.669-14.885c0.184-0.5,0.371-0.995,0.554-1.497c1.873-5.137,3.697-10.337,5.47-15.597
	c0.171-0.507,0.337-1.019,0.507-1.527c1.748-5.227,3.452-10.504,5.099-15.847c0.04-0.128,0.081-0.255,0.12-0.383
	c1.672-5.435,3.284-10.936,4.849-16.486c0.191-0.678,0.379-1.359,0.569-2.04c3.088-11.071,5.961-22.366,8.61-33.867
	c0.164-0.711,0.328-1.42,0.49-2.133c1.322-5.817,2.598-11.678,3.805-17.598H732.576c-14.582,72.561-38.165,139.117-69.74,195.309
	c-43.398,77.234-98.035,128.033-157.696,147.93h156.039c3.523,0,7.028-0.151,10.522-0.371c0.795-0.05,1.588-0.099,2.38-0.161
	c3.426-0.264,6.841-0.612,10.236-1.084c0.463-0.064,0.923-0.151,1.386-0.219c3.09-0.457,6.166-1.006,9.228-1.632
	c0.7-0.143,1.402-0.276,2.101-0.427c3.338-0.725,6.659-1.548,9.961-2.472c0.654-0.183,1.303-0.386,1.955-0.577
	c2.992-0.875,5.971-1.824,8.933-2.859c0.505-0.177,1.013-0.336,1.516-0.517c3.276-1.176,6.529-2.465,9.765-3.835
	c0.713-0.302,1.422-0.615,2.133-0.927c3.173-1.388,6.332-2.843,9.463-4.413c0.124-0.063,0.252-0.118,0.376-0.181
	c3.238-1.633,6.445-3.392,9.637-5.216c0.693-0.396,1.385-0.794,2.076-1.2c3.161-1.853,6.303-3.777,9.415-5.814
	c0.279-0.183,0.554-0.379,0.833-0.563c2.923-1.933,5.821-3.959,8.699-6.052c0.602-0.438,1.206-0.868,1.806-1.313
	c3.039-2.251,6.053-4.584,9.038-7.011c0.484-0.393,0.963-0.803,1.445-1.201c2.742-2.26,5.461-4.593,8.156-6.999
	c0.431-0.384,0.865-0.757,1.295-1.145c2.943-2.66,5.853-5.413,8.738-8.242c0.536-0.526,1.069-1.063,1.604-1.595
	c2.812-2.8,5.603-5.662,8.357-8.622C812.354,1406.352,812.477,1406.228,812.598,1406.097z"/>
</svg>
